#tb 0: 1/1000
0,          0,          0,        0,    65856, 13263674ea5aa619250dfd139bda872f
0,         33,         33,        0,    65856, 39f5cbd8917f2b3a1df8cf2b786266de
0,         66,         66,        0,    65856, f9aade31f9e3065f3d5b8645ef099ac6
0,        100,        100,        0,    65856, 124f9664380f092e692b5e881f5a8fcc
0,        133,        133,        0,    65856, e8e040e417830f5e911537828ace21b7
0,        166,        166,        0,    65856, 84ce09882b9c184a787e8022e6d8c8de
0,        200,        200,        0,    65856, b1397fd91814e4fdc4f75c89161ced26
0,        233,        233,        0,    65856, d64f39d64d248f0223ed359e092d46cb
0,        266,        266,        0,    65856, e04ee663dcc52eebd74255671c6f4ec9
0,        300,        300,        0,    65856, 955303cb73bf072c693f37d9778ca2b6
